<svg xmlns="http://www.w3.org/2000/svg" viewBox="0 0 755.89 163.83"><title>Logotype-RGB-white-strong</title><path d="M797.13,258.58l-37.65-37.64a14.72,14.72,0,0,0-20.82,0L701,258.58a14.72,14.72,0,0,0,0,20.82l10,10a10.37,10.37,0,0,0,3,1.84c8.73,3.55,15.9-5,19.53-8.63,2.84-2.85,0-5.69,0-5.69l-5.55-5.56c-2.84-2.85,0-5.69,0-5.69l17.88-17.85c2.85-2.84,5.69,0,5.69,0l18.48,18.51c2.84,2.85,0,5.69,0,5.69L752.4,289.78l-5.69,5.69c-7.84,8-18.31,7.16-27.71,1.91L738.66,317a14.72,14.72,0,0,0,20.82,0l37.65-37.64a14.72,14.72,0,0,0,0-20.82" transform="translate(-45.55 -216.63)" style="fill:#fff"/><path d="M101.79,351.49c-5.51,2.4-14.7,3.82-21.2,3.82-22,0-35-8.76-35-38.15s13.14-37.45,35-37.45c6.5,0,15.83,1.41,21.2,3.39L98.26,295a44.41,44.41,0,0,0-17.1-3.25c-14.55,0-21.48,3.53-21.48,25.72,0,21.05,6.92,25.86,21.48,25.86a46,46,0,0,0,17.1-3.53Z" transform="translate(-45.55 -216.63)" style="fill:#fff"/><path d="M111.68,317.15c0-29.25,10.88-37.45,33.35-37.45s33.35,8.2,33.35,37.45-10.6,38.15-33.35,38.15S111.68,346.54,111.68,317.15Zm14.13,0.28c0,21.48,4.66,26.57,19.22,26.57s19.22-5.09,19.22-26.57C164.25,295,159.58,291,145,291S125.81,295,125.81,317.44Z" transform="translate(-45.55 -216.63)" style="fill:#fff"/><path d="M210.17,353.33H196.89V285.64c8.2-3.53,20.35-5.94,30.38-5.94,8.48,0,14.55,1.41,18.79,4.8a82.74,82.74,0,0,1,25.86-4.8c20.49,0,27.7,7.49,27.7,33.49v40.13H286.33V314.89c0-18.79-3.82-22.89-17.1-22.89a60.77,60.77,0,0,0-16.82,2.4C254,299.07,255,305.28,255,313.2v40.13H241.54V314.89c0-18.79-3.53-22.89-16.81-22.89a54,54,0,0,0-14.55,2v59.35Z" transform="translate(-45.55 -216.63)" style="fill:#fff"/><path d="M319.83,285.08c7.77-3.25,20.63-5.37,30.1-5.37,22.89,0,33.35,8.34,33.35,37.59s-11,38-31.79,38c-9,0-14.7-2.54-18.37-5.09v30.24H319.83V285.08ZM333.11,335c0,5.51,7.63,8.62,16.81,8.62,14.55,0,19.36-5.37,19.36-26,0-22-4.8-26-19.36-26-5.93,0-12.29.85-16.81,2.54V335Z" transform="translate(-45.55 -216.63)" style="fill:#fff"/><path d="M401.79,281.69h13.28v5.23c2.68-3.67,9-7.21,19.22-7.21a63.87,63.87,0,0,1,7.35.43v13a49.57,49.57,0,0,0-8.34-.71c-9.61,0-18.23,2.83-18.23,8.76v52.14H401.79V281.69Z" transform="translate(-45.55 -216.63)" style="fill:#fff"/><path d="M509,351.35a95.83,95.83,0,0,1-24.45,4c-21.2,0-34.05-8.76-34.05-38.15,0-28.4,11.73-37.45,32.78-37.45,21.48,0,30.95,7.91,30.24,40.56H464.81c0.14,19.22,6.78,23.31,21.34,23.31a77.5,77.5,0,0,0,20.35-3.39Zm-44.09-42h35.33c-0.71-15.26-4.8-18.51-16.39-18.51C470.89,290.87,466.08,295.11,464.95,309.38Z" transform="translate(-45.55 -216.63)" style="fill:#fff"/><path d="M543.66,353.33H530.38V285.64c8.2-3.53,21.34-5.94,31.37-5.94,20.49,0,28.68,7.49,28.68,33.49v40.13H577.15V314.89c0-18.79-3.82-22.89-18.09-22.89a53.46,53.46,0,0,0-15.4,2v59.35Z" transform="translate(-45.55 -216.63)" style="fill:#fff"/><path d="M672,349.79c-7.77,3.39-20.63,5.51-30.1,5.51-22.89,0-33.49-8.34-33.49-37.73,0-29.11,11-37.87,31.79-37.87,9.19,0,14.7,2.4,18.51,4.8V251.31H672v98.49Zm-13.28-49.88c0-5.37-7.77-8.48-17-8.48-14.41,0-19.22,5.37-19.22,25.86,0,22,4.8,26.14,19.36,26.14a52.55,52.55,0,0,0,16.82-2.54v-41Z" transform="translate(-45.55 -216.63)" style="fill:#fff"/></svg>